<svg width="85" height="85" viewBox="0 0 85 85" fill="none" xmlns="http://www.w3.org/2000/svg">
<path d="M26.5625 79.6875C29.4965 79.6875 31.875 77.309 31.875 74.375C31.875 71.441 29.4965 69.0625 26.5625 69.0625C23.6285 69.0625 21.25 71.441 21.25 74.375C21.25 77.309 23.6285 79.6875 26.5625 79.6875Z" fill="black"/>
<path d="M63.75 79.6875C66.684 79.6875 69.0625 77.309 69.0625 74.375C69.0625 71.441 66.684 69.0625 63.75 69.0625C60.816 69.0625 58.4375 71.441 58.4375 74.375C58.4375 77.309 60.816 79.6875 63.75 79.6875Z" fill="black"/>
<path d="M13.2297 7.44786C13.1093 6.84571 12.784 6.30388 12.3091 5.91456C11.8342 5.52524 11.2391 5.31249 10.625 5.3125H0V10.625H8.44688L18.6453 61.6146C18.7657 62.2168 19.091 62.7586 19.5659 63.1479C20.0408 63.5373 20.6359 63.75 21.25 63.75H69.0625V58.4375H23.4281L21.3031 47.8125H69.0625C69.6668 47.8125 70.2531 47.6065 70.7246 47.2283C71.196 46.8502 71.5244 46.3226 71.6555 45.7327L77.6807 18.5938H72.2423L66.9327 42.5H20.2406L13.2297 7.44786Z" fill="black"/>
<path d="M45.1563 5.3125C42.0041 5.3125 38.9228 6.24722 36.3018 7.99845C33.6809 9.74969 31.6382 12.2388 30.4319 15.151C29.2256 18.0632 28.91 21.2677 29.525 24.3593C30.1399 27.4508 31.6578 30.2906 33.8867 32.5195C36.1156 34.7484 38.9554 36.2663 42.047 36.8813C45.1386 37.4962 48.3431 37.1806 51.2553 35.9743C54.1675 34.7681 56.6566 32.7253 58.4078 30.1044C60.159 27.4835 61.0938 24.4021 61.0938 21.25C61.0891 17.0245 59.4085 12.9735 56.4206 9.98561C53.4328 6.99776 49.3817 5.31714 45.1563 5.3125V5.3125ZM45.1563 10.625C47.0469 10.6348 48.8998 11.1551 50.5192 12.1308L36.0371 26.613C35.0615 24.9935 34.5412 23.1406 34.5312 21.25C34.5344 18.433 35.6548 15.7324 37.6467 13.7405C39.6386 11.7486 42.3393 10.6282 45.1563 10.625V10.625ZM45.1563 31.875C43.2656 31.8652 41.4127 31.3449 39.7933 30.3692L54.2754 15.887C55.251 17.5065 55.7713 19.3594 55.7812 21.25C55.7781 24.067 54.6577 26.7676 52.6658 28.7595C50.6739 30.7514 47.9732 31.8718 45.1563 31.875V31.875Z" fill="black"/>
</svg>
