<svg width="85" height="85" viewBox="0 0 85 85" fill="none" xmlns="http://www.w3.org/2000/svg">
<path d="M10.625 10.625L74.375 74.375" stroke="black" stroke-width="5" stroke-linecap="round" stroke-linejoin="round"/>
<path d="M24.7917 53.1251C26.7477 53.1251 28.3333 51.5395 28.3333 49.5834C28.3333 47.6274 26.7477 46.0417 24.7917 46.0417C22.8357 46.0417 21.25 47.6274 21.25 49.5834C21.25 51.5395 22.8357 53.1251 24.7917 53.1251Z" fill="black" stroke="black" stroke-width="1.5" stroke-linecap="round" stroke-linejoin="round"/>
<path d="M65.5208 67.2917H9.20833C8.03473 67.2917 7.08333 66.3404 7.08333 65.1667V31.875H30.1042" stroke="black" stroke-width="5" stroke-linecap="round" stroke-linejoin="round"/>
<path d="M7.08333 31.8749V19.8333C7.08333 18.6596 8.03473 17.7083 9.20833 17.7083H15.9375" stroke="black" stroke-width="5" stroke-linecap="round" stroke-linejoin="round"/>
<path d="M49.5833 31.875H77.9167V60.2083" stroke="black" stroke-width="5" stroke-linecap="round" stroke-linejoin="round"/>
<path d="M77.9167 31.8749V19.8333C77.9167 18.6596 76.9654 17.7083 75.7917 17.7083H35.4167" stroke="black" stroke-width="5" stroke-linecap="round" stroke-linejoin="round"/>
</svg>
