<svg width="85" height="85" viewBox="0 0 85 85" fill="none" xmlns="http://www.w3.org/2000/svg">
<path d="M23 43V55C23 56.6568 24.3432 58 26 58H38C38.7956 58 39.5586 57.6838 40.1212 57.1212L73.121 24.1212C74.2926 22.9496 74.2926 21.0502 73.121 19.8786L61.121 7.8786C60.5588 7.3162 59.7956 7 59 7C58.2044 7 57.4412 7.3162 56.8788 7.8788L23.8788 40.8788C23.316 41.4412 23 42.2044 23 43ZM29 44.2426L59 14.2426L66.7574 22L36.7574 52H29V44.2426Z" fill="black"/>
<path d="M71 37.0002C69.3432 37.0002 68 38.3434 68 40.0002V67H14V13H41C42.6568 13 44 11.6568 44 10C44 8.3432 42.6568 7 41 7H11C9.3432 7 8 8.3432 8 10V70C8 71.6568 9.3432 73 11 73H71C72.6568 73 74 71.6568 74 70V40.0002C74 38.3432 72.6568 37.0002 71 37.0002Z" fill="black"/>
</svg>
