<svg width="85" height="85" viewBox="0 0 85 85" fill="none" xmlns="http://www.w3.org/2000/svg">
<path d="M8.1068 65.1487H76.6854C78.6774 65.1487 80.2884 63.5204 80.2884 61.5457C80.2884 39.1135 65.2354 20.6827 46.0078 18.604V14.7931H49.0738C51.0658 14.7931 52.6768 13.1648 52.6768 11.1901C52.6768 9.21538 51.0485 7.5871 49.0738 7.5871H35.7184C33.7263 7.5871 32.1154 9.21538 32.1154 11.1901C32.1154 13.1648 33.7436 14.7931 35.7184 14.7931H38.7844V18.604C19.5568 20.6827 4.50378 39.1135 4.50378 61.5457C4.50378 63.5378 6.13207 65.1487 8.1068 65.1487ZM42.4047 25.6368C58.4624 25.6368 71.6446 39.893 73.0823 58.1159H11.7271C13.3381 39.893 26.3471 25.6368 42.4047 25.6368Z" fill="black"/>
<path d="M81.3797 70.2068H3.60302C1.61096 70.2068 0 71.8351 0 73.8098C0 75.7846 1.62829 77.4128 3.60302 77.4128H81.2064C83.1985 77.4128 85 75.7846 85 73.8098C85 71.8351 83.3717 70.2068 81.3797 70.2068Z" fill="black"/>
</svg>
