<svg width="85" height="85" viewBox="0 0 85 85" fill="none" xmlns="http://www.w3.org/2000/svg">
<path d="M61.8707 47.2223C63.9997 47.2223 65.7256 45.4964 65.7256 43.3674C65.7256 41.2384 63.9997 39.5125 61.8707 39.5125C59.7417 39.5125 58.0157 41.2384 58.0157 43.3674C58.0157 45.4964 59.7417 47.2223 61.8707 47.2223Z" fill="black"/>
<path d="M54.161 31.8027H31.0317C29.8752 31.8027 29.1043 32.5738 29.1043 33.7301C29.1043 34.8864 29.8753 35.6575 31.0317 35.6575H54.1608C55.3173 35.6575 56.0882 34.8864 56.0882 33.7301C56.0882 32.5738 55.3175 31.8027 54.161 31.8027Z" fill="black"/>
<path d="M79.2177 41.4399C78.0612 41.4399 77.0975 40.8617 76.5193 39.7052C74.9773 36.6213 73.05 33.7301 70.3515 31.0317L73.2428 20.8162C73.4356 20.238 73.2428 19.6597 72.8573 19.0815C72.4719 18.696 71.8936 18.3104 71.3154 18.3104C66.1114 18.1176 61.871 19.8524 58.5943 23.5145C57.0524 22.9362 55.3177 22.358 53.5829 21.7797C54.932 19.6596 55.7031 17.1539 55.7031 14.4555C55.7031 6.93848 49.728 0.963379 42.211 0.963379C34.6939 0.963379 28.7188 6.93848 28.7188 14.4555C28.7188 21.9725 34.6939 27.9476 42.211 27.9476C45.4876 27.9476 48.3787 26.7911 50.6917 24.8638C53.1973 25.442 56.2812 26.5985 58.2087 27.5622C58.9798 27.9476 59.9435 27.755 60.5217 26.984C62.6419 24.2855 65.1475 22.7436 68.4242 22.3581L65.9186 31.2243C65.7257 31.9954 65.9185 32.7662 66.4968 33.1517C69.1952 35.6573 71.3154 38.3557 72.6645 41.4396C73.821 43.9452 76.1338 45.2945 78.8323 45.2945C79.9888 45.2945 80.7596 46.0656 80.7596 47.2219V54.9316C80.7596 56.0881 79.9886 56.8589 78.8323 56.8589H75.5556C74.9773 56.8589 74.5919 57.0517 74.2065 57.4372C73.2428 58.5937 72.4717 59.3646 71.508 60.1356C70.5444 61.0993 69.3879 62.063 67.8459 63.9905C64.9547 67.2672 63.4128 71.5076 63.4128 76.1334V78.0607C63.4128 79.2172 62.6417 79.9881 61.4854 79.9881H57.6305C56.474 79.9881 55.7031 79.2171 55.7031 78.0607V74.3986C55.7031 73.2421 54.932 72.4712 53.7757 72.4712C52.6192 72.4712 51.8483 73.2423 51.8483 74.3986V78.0607C51.8483 81.3374 54.354 83.843 57.6306 83.843H61.4852C64.7619 83.843 67.2675 81.3374 67.2675 78.0607V76.1334C67.2675 72.4712 68.424 69.0018 70.7368 66.4962C72.2788 64.7614 73.2424 63.7977 74.2061 62.834C74.9772 62.2558 75.5553 61.4849 76.3263 60.7139H79.2175C82.4942 60.7139 84.9998 58.2082 84.9998 54.9316V47.2219C85 43.9456 82.4942 41.4399 79.2177 41.4399ZM42.5964 24.0931C37.1996 24.0931 32.9592 19.8527 32.9592 14.4558C32.9592 9.05899 37.1996 4.81863 42.5964 4.81863C47.9933 4.81863 52.2336 9.05899 52.2336 14.4558C52.2335 19.8527 47.9931 24.0931 42.5964 24.0931Z" fill="black"/>
<path d="M47.0294 74.0136C41.2471 74.5918 35.0794 74.0136 29.6825 72.0862C29.1043 71.8934 28.526 71.8934 27.9478 72.279C27.5623 72.6645 27.1767 73.2427 27.1767 73.821V78.0613C27.1767 79.2178 26.4057 79.9887 25.2494 79.9887H21.3944C20.2379 79.9887 19.4671 79.2177 19.4671 78.0613V73.6282C19.4671 69.5806 18.1179 65.5329 15.4195 62.2562C14.8413 61.678 14.263 60.9071 13.6848 60.3288C12.1428 58.5941 11.1791 57.245 10.4081 55.703C10.0227 54.3539 9.82985 53.0046 9.82985 51.0772C9.82985 40.8618 16.7686 31.6102 27.9478 26.9842C28.9115 26.5988 29.4897 25.4423 28.9115 24.4786C28.526 23.5149 27.3695 22.9366 26.4058 23.5149C14.6485 28.3335 7.13159 37.9705 5.9751 48.7642C4.81861 48.186 3.85492 46.8369 3.85492 45.2949C3.85492 44.1384 3.08387 43.3676 1.92754 43.3676C0.771216 43.3676 0 44.1384 0 45.2949C0 48.957 2.50562 51.8483 5.78229 52.812C5.9751 54.3539 6.16774 55.8958 6.74598 57.0523C7.51703 59.1725 8.86616 60.7144 10.6009 62.8346C11.1791 63.4129 11.7574 64.1838 12.3356 64.9548C14.263 67.4604 15.4195 70.7371 15.4195 73.821V78.2541C15.4195 81.5308 17.9251 84.0364 21.2018 84.0364H25.0567C28.3334 84.0364 30.839 81.5308 30.839 78.2541V76.7122C36.0431 78.2541 41.8254 78.6396 47.415 78.0613C48.3787 77.8685 49.1498 76.9048 49.1498 75.9411C49.1496 74.5918 48.1859 73.821 47.0294 74.0136Z" fill="black"/>
<path d="M44.5238 16.3833V10.601C44.5238 9.44447 43.7527 8.67358 42.5964 8.67358H40.669C39.5125 8.67358 38.7416 9.44463 38.7416 10.601C38.7416 11.7573 39.5127 12.5283 40.669 12.5283V16.3833C39.5125 16.3833 38.7416 17.1543 38.7416 18.3106C38.7416 19.467 39.5127 20.238 40.669 20.238H44.5238C45.6803 20.238 46.4511 19.467 46.4511 18.3106C46.4511 17.1543 45.6803 16.3833 44.5238 16.3833Z" fill="black"/>
</svg>
