<svg width="85" height="85" viewBox="0 0 85 85" fill="none" xmlns="http://www.w3.org/2000/svg">
<path d="M79.264 41.6874L71.2986 15.3045C70.371 12.2486 67.2145 9.85507 64.0683 9.85507H59.1305V4.10628C59.1305 1.83838 57.4288 0 55.1609 0H29.2914C27.0235 0 25.0484 1.83838 25.0484 4.10628V9.85507H20.7947C17.6497 9.85507 14.4587 12.2486 13.5302 15.3049L5.42034 41.8266C3.02227 42.6688 1.23193 44.9469 1.23193 47.6329V66.9324C1.23193 70.334 4.12645 73.0918 7.52809 73.0918H7.80198V75.5942C7.80198 80.789 12.1501 85 17.345 85H17.4222C22.6166 85 26.6909 80.789 26.6909 75.5942V73.0918H57.488V75.8956C57.488 80.9237 61.701 85 66.7292 85H66.9985C72.0267 85 75.9662 80.9237 75.9662 75.8956V73.0918H77.7455C81.1471 73.0918 83.7682 70.334 83.7682 66.9324V47.6329C83.7682 44.7806 81.8953 42.3883 79.264 41.6874ZM17.733 64.6144C13.612 64.6144 10.2711 61.2735 10.2711 57.1524C10.2711 53.0314 13.612 49.6905 17.733 49.6905C21.8541 49.6905 25.195 53.0314 25.195 57.1524C25.195 61.2735 21.8541 64.6144 17.733 64.6144ZM16.4531 38.599L23.4658 15.6039H61.3972L68.4099 38.599H16.4531ZM66.9809 64.6144C62.8598 64.6144 59.5189 61.2735 59.5189 57.1524C59.5189 53.0314 62.8598 49.6905 66.9809 49.6905C71.1019 49.6905 74.4428 53.0314 74.4428 57.1524C74.4428 61.2735 71.1019 64.6144 66.9809 64.6144Z" fill="black"/>
</svg>
