<svg width="85" height="85" viewBox="0 0 85 85" fill="none" xmlns="http://www.w3.org/2000/svg">
<g clip-path="url(#clip0_171_110)">
<path d="M67.9425 47.6744C66.7735 47.6744 65.6217 47.2274 64.7278 46.3335C52.4535 34.0765 32.5122 34.0765 20.2379 46.3335C18.4673 48.1042 15.5792 48.1042 13.8086 46.3335C12.0379 44.5629 12.0379 41.6748 13.8086 39.9041C29.6241 24.0886 55.3416 24.0886 71.1571 39.9041C72.9278 41.6748 72.9278 44.5629 71.1571 46.3335C70.2632 47.2274 69.0942 47.6744 67.9425 47.6744Z" fill="black"/>
<path d="M55.6338 59.9659C54.4648 59.9659 53.313 59.5189 52.4191 58.625C49.7717 55.9776 46.2304 54.5164 42.4828 54.5164C38.7352 54.5164 35.1939 55.9776 32.5465 58.625C30.7759 60.3956 27.8878 60.3956 26.1172 58.625C24.3465 56.8543 24.3465 53.9663 26.1172 52.1956C30.4836 47.8291 36.2941 45.4224 42.4828 45.4224C48.6715 45.4224 54.482 47.8291 58.8485 52.2128C60.6191 53.9834 60.6191 56.8715 58.8485 58.6422C57.9718 59.5189 56.8028 59.9659 55.6338 59.9659Z" fill="black"/>
<path d="M42.4828 74.6468C45.8343 74.6468 48.5511 71.9299 48.5511 68.5784C48.5511 65.227 45.8343 62.5101 42.4828 62.5101C39.1313 62.5101 36.4144 65.227 36.4144 68.5784C36.4144 71.9299 39.1313 74.6468 42.4828 74.6468Z" fill="black"/>
<path d="M80.4401 35.1767C79.2712 35.1767 78.1194 34.7297 77.2254 33.8358C58.0577 14.6852 26.9079 14.6852 7.75736 33.8358C5.9867 35.6065 3.09864 35.6065 1.32799 33.8358C-0.442664 32.0652 -0.442664 29.1771 1.32799 27.4064C12.3301 16.4043 26.9423 10.3531 42.5 10.3531C58.0577 10.3531 72.6699 16.4043 83.672 27.4064C85.4427 29.1771 85.4427 32.0652 83.672 33.8358C82.7609 34.7297 81.5919 35.1767 80.4401 35.1767Z" fill="black"/>
</g>
<defs>
<clipPath id="clip0_171_110">
<rect width="85" height="85" fill="white"/>
</clipPath>
</defs>
</svg>
